<svg width="75" height="24" viewBox="0 0 75 24" fill="none" xmlns="http://www.w3.org/2000/svg">
<path fill-rule="evenodd" clip-rule="evenodd" d="M56.7244 22.7469L56.7245 22.7464C56.8083 22.4308 56.8947 22.1052 56.9888 21.7264C57.0615 21.8263 57.1196 21.9084 57.1699 21.9795L57.1699 21.9796C57.2353 22.072 57.2875 22.1458 57.3416 22.2158C58.9024 24.2382 62.048 23.8844 63.0109 21.5495C63.3039 20.8419 63.5371 20.0695 63.573 19.3148C63.6627 16.8443 63.6986 14.3797 63.6507 11.9092C63.6268 10.9481 63.4295 9.9634 63.1245 9.04359C62.652 7.56364 61.3184 6.88557 59.7576 7.18628C58.7768 7.38675 58.0174 7.90562 57.4313 8.70161C57.3963 8.74668 57.359 8.79056 57.3121 8.84558L57.312 8.84568C57.2547 8.913 57.1831 8.997 57.0844 9.12024V0.865524H53.6518V23.2417H56.5941C56.6373 23.0754 56.6805 22.9125 56.7244 22.7469ZM57.1562 19.6627V15.5707V11.4787C57.1562 10.7889 57.4911 10.27 58.0413 9.90444C58.7709 9.42685 59.5124 9.66859 59.7815 10.4882C59.9251 10.9422 60.0387 11.4257 60.0387 11.8915C60.0207 14.3974 59.9609 16.8974 59.8951 19.3974C59.8892 19.6627 59.7755 19.928 59.6619 20.1816C59.3928 20.7889 58.8546 21.0424 58.1908 20.8891C57.515 20.7358 57.1562 20.329 57.1562 19.6627ZM47.827 7.50468H51.4212V23.2535H48.6164C48.5242 22.7134 48.432 22.1588 48.3264 21.5237L48.3264 21.5234L48.2935 21.3254C48.1691 21.5056 48.0776 21.6433 47.9959 21.7663L47.9958 21.7663L47.9956 21.7668L47.9952 21.7673C47.9515 21.8331 47.9105 21.8947 47.8689 21.9563C46.936 23.283 45.6143 23.737 44.0535 23.4952C42.7199 23.283 41.9185 22.2688 41.7391 20.6061C41.6853 20.1108 41.6614 19.6096 41.6614 19.1143C41.6534 16.6571 41.6561 14.1947 41.6587 11.734V11.7327V11.7314V11.7301V11.7288V11.7275V11.7262V11.7249C41.6601 10.4982 41.6614 9.27202 41.6614 8.04713V7.49288H45.2974V8.13557C45.2974 9.02601 45.2966 9.91609 45.2959 10.806C45.2936 13.4752 45.2914 16.1428 45.3093 18.8136C45.3093 19.3207 45.3632 19.8455 45.4529 20.3526C45.5545 20.8714 45.9373 21.0601 46.4516 21.0247C47.2828 20.9599 47.8569 20.3526 47.8569 19.5389V8.20043C47.827 7.97048 47.827 7.75821 47.827 7.50468ZM26.6929 7.49288H23.0808L23.0748 7.91741C23.0748 11.7441 23.0748 15.5884 23.0868 19.4151C23.0868 19.8926 23.1346 20.3643 23.2004 20.8419C23.4396 22.3691 24.223 23.3007 25.5028 23.4893C27.0995 23.7311 28.4092 23.2358 29.3421 21.8856C29.4438 21.7264 29.5454 21.5731 29.7248 21.3077C29.7858 21.6603 29.8404 21.9786 29.8915 22.2768L29.8918 22.2789C29.9509 22.6233 30.0053 22.941 30.0597 23.2535H32.8525V7.51647H29.2584V8.22401V19.5035C29.2524 20.3231 28.756 20.8832 27.9368 20.9952C27.3447 21.0719 26.9979 20.8832 26.8603 20.2995C26.7527 19.8042 26.7048 19.2794 26.7048 18.7724C26.6869 16.1238 26.6891 13.472 26.6914 10.8168C26.6921 9.93127 26.6929 9.0454 26.6929 8.15916V7.49288ZM21.2269 15.9009C21.2174 16.3254 21.1925 16.75 21.1676 17.1745C21.1614 17.2806 21.1552 17.3868 21.1492 17.4929C21.1373 17.6299 21.126 17.7719 21.1144 17.9177C20.9911 19.4655 20.8336 21.4431 19.6422 22.5047C18.8109 23.2358 17.7584 23.5011 16.67 23.5365C16.1856 23.5483 15.6952 23.5483 15.2108 23.4834C12.9204 23.1415 11.8559 22.145 11.4732 19.6627C11.0366 16.7971 11.0007 13.8844 11.521 11.0188C12.0592 8.05302 13.9131 7.0035 16.7956 7.19807C19.4867 7.38675 20.6887 9.12614 21.0057 11.6026C21.1791 13.0235 21.2628 14.4622 21.2269 15.9009ZM17.5709 14.4937C17.569 14.7822 17.567 15.0706 17.567 15.3584C17.567 16.2923 17.5305 17.2261 17.494 18.158L17.494 18.1581L17.494 18.1583L17.494 18.1584L17.494 18.1586C17.4773 18.5857 17.4606 19.0125 17.4474 19.4386C17.4474 19.7806 17.3278 20.1285 17.1903 20.4469C17.0168 20.8596 16.7059 21.0896 16.2334 21.0896C15.749 21.0896 15.3782 20.8537 15.2347 20.4233C14.8623 19.3124 14.9024 18.1173 14.9419 16.9389C14.9525 16.6225 14.9631 16.3073 14.9656 15.9952C14.9776 14.4151 14.9895 12.829 14.9895 11.2488C14.9895 11.0321 15.0533 10.8101 15.1157 10.5928L15.1271 10.553C15.3184 9.93392 15.6892 9.61552 16.2155 9.60373C16.7537 9.59194 17.1843 9.91034 17.3278 10.5766C17.4534 11.1544 17.5311 11.7441 17.5551 12.3278C17.5807 13.0482 17.5758 13.7716 17.5709 14.4937ZM6.45323 11.1582L6.45327 11.158L6.45329 11.1579C6.67981 10.0565 6.90369 8.96787 7.14346 7.87614C7.3351 6.99163 7.53706 6.10712 7.73916 5.22202L7.73917 5.222C7.97221 4.20135 8.20544 3.17992 8.42323 2.1568C8.52489 1.691 8.71626 1.57897 9.16478 1.59076C9.84944 1.61592 10.5432 1.61126 11.2567 1.60647C11.5466 1.60452 11.8398 1.60255 12.137 1.60255C11.8295 2.71763 11.5271 3.78302 11.2297 4.83065L11.2297 4.83071L11.2297 4.83073L11.2297 4.83081L11.1502 5.11081C10.1276 8.68392 9.10498 12.2688 8.09432 15.8537C8.01657 16.1309 7.98069 16.4316 7.98069 16.7264C7.97272 18.0312 7.97538 19.3334 7.97803 20.6364V20.6365V20.6365V20.6366C7.97936 21.2884 7.98069 21.9404 7.98069 22.5931V23.2299H4.47029C4.46631 23.1709 4.46099 23.112 4.45567 23.053C4.44504 22.9351 4.43441 22.8172 4.43441 22.6993C4.43441 22.3453 4.42527 21.9908 4.41612 21.6364C4.39664 20.8809 4.37717 20.1262 4.44637 19.3797C4.67084 17.079 4.05229 14.94 3.434 12.802C3.34399 12.4908 3.25399 12.1796 3.1666 11.8679C2.7121 10.2464 2.25462 8.62202 1.79713 6.99761C1.33964 5.3732 0.88215 3.74878 0.42765 2.12732C0.400867 2.04149 0.383455 1.95198 0.364922 1.85669C0.35035 1.78177 0.335085 1.70329 0.314026 1.62024H3.89619C4.6497 5.19925 5.40919 8.77826 6.19858 12.3926C6.28446 11.9788 6.36903 11.5677 6.45323 11.1582ZM68.8296 16.5023H74.8816C74.8816 15.7716 74.888 15.0609 74.8942 14.3598C74.9016 13.5392 74.9088 12.7318 74.9055 11.9209C74.8816 11.2665 74.768 10.6061 74.6125 9.9634C74.2716 8.59548 73.4882 7.55184 72.0171 7.29831C71.1081 7.14501 70.1572 7.10963 69.2363 7.19807C67.5439 7.36317 66.4495 8.34784 65.9472 9.95161C65.8216 10.3408 65.7079 10.724 65.6422 11.125C65.2714 13.5306 65.3372 15.954 65.5166 18.3537C65.5824 19.3266 65.8873 20.2995 66.2103 21.2311C66.5571 22.2276 67.3286 22.8761 68.3632 23.1768C69.7625 23.5837 71.1679 23.5837 72.5374 23.053C74.2776 22.3867 75.3122 20.2287 74.7381 18.5483C74.0446 18.5193 73.3452 18.4816 72.6357 18.4433L72.6347 18.4432L72.6341 18.4432C72.3346 18.427 72.0334 18.4107 71.73 18.395L71.7245 18.4976L71.7245 18.498L71.7245 18.4985C71.7094 18.7781 71.6976 18.9975 71.6762 19.2028C71.6523 19.4622 71.6164 19.7158 71.5626 19.9693C71.3951 20.7476 70.9765 21.1014 70.2589 21.0896C69.5712 21.0837 69.1346 20.7476 69.0449 19.9634C68.9541 19.1492 68.9165 18.3288 68.8777 17.4845L68.8777 17.484L68.8777 17.4836C68.8628 17.1604 68.8478 16.8336 68.8296 16.5023ZM71.443 14.4327C71.443 14.1332 71.4438 13.8381 71.4445 13.5463C71.4467 12.6838 71.4489 11.85 71.431 11.0129C71.431 10.7476 71.3294 10.4705 71.2277 10.2169C71.0244 9.72166 70.5998 9.58604 70.0915 9.58604C69.5831 9.58604 69.2602 9.83958 69.1346 10.2936C68.822 11.4063 68.8485 12.5386 68.8753 13.6778C68.8812 13.9331 68.8872 14.1887 68.8894 14.4445C69.8044 14.4327 70.6357 14.4327 71.443 14.4327ZM32.0691 4.4917H35.6273L35.6333 23.2299H39.1557V4.47401H42.69V1.64972H32.0691V4.4917Z" fill="black"/>
</svg>
